<?xml version="1.0" standalone="no"?><!DOCTYPE svg PUBLIC "-//W3C//DTD SVG 1.1//EN" "http://www.w3.org/Graphics/SVG/1.1/DTD/svg11.dtd"><svg t="1753358797805" class="icon" viewBox="0 0 1024 1024" version="1.1" xmlns="http://www.w3.org/2000/svg" p-id="4518" xmlns:xlink="http://www.w3.org/1999/xlink" width="200" height="200"><path d="M524.95 44.17c19.173-2.304 42.723-1.935 56.18 14.242 15.763 20.094 16.5 48.16 9.587 71.85-8.618 29.818-21.661 58.254-37.607 84.846-18.435 31.201-44.152 57.102-68.716 83.418-21.385 23.366-47.101 42.078-72.219 61.112-10 7.558-19.218 16.867-24.196 28.574-2.673 12.028 3.365 23.873 10.186 33.367 22.306 16.775 51.202 23.827 70.56 44.658 17.604 17.882 29.08 41.202 36.5 64.937 8.48 23.92-13.78 44.244-32.998 54.245-24.75 9.816-52.217 4.977-77.657 0.737-13.734-2.028-25.394-10.093-35.441-19.218-29.035-26.408-57.148-53.876-84.524-82.035-23.735-26.685-50.281-58.485-43.645-96.968 8.066-35.902 27.56-69.73 55.95-93.465 22.583-18.85 44.06-39.128 63.278-61.434 39.358-48.438 72.126-101.991 113.65-148.723 16.316-18.343 36.456-35.073 61.113-40.142z" p-id="4519" fill="#1296db"></path><path d="M492.966 328.344c-0.6-16.453 14.84-27.975 30.371-27.606 44.705-2.12 89.087 9.448 133.838 6.452 14.517-0.276 30.002-1.336 43.183 5.9 30.418 15.9 53.784 42.261 71.804 71.02 12.95 18.665 30.602 39.45 23.92 63.877-12.03 37.93-45.811 62.264-71.989 90.146-48.944 45.396-93.142 95.493-139.275 143.608 11.982 0.6 23.965 1.475 35.856 3.272-23.69-0.046-49.636-3.272-71.159 8.803-14.425 6.82-10.738 24.61-10.784 37.607-35.58 36.501-69.915 74.154-104.48 111.623-20.74 25.394-45.81 47.608-61.434 76.874-7.927 12.95-14.61 28.251-28.85 35.487-19.772 10.922-43.369 8.111-65.076 8.157-25.486-1.428-56.964-2.212-72.495-26.085 1.336-24.058 16.499-43.46 29.265-62.679 27.468-39.589 58.853-76.182 90.423-112.452 27.238-28.16 58.67-51.849 86.368-79.547 25.21-25.44 51.064-50.281 75.26-76.69 42.492-45.165 87.796-87.933 126.187-136.786 6.775-7.328 3.871-17.697 3.917-26.638-34.98-15.624-66.55-37.976-97.474-60.375-17.606-11.614-30.418-32.307-27.376-53.968z" p-id="4520" fill="#1296db"></path><path d="M549.515 693.816c21.523-12.075 47.47-8.849 71.159-8.803 32.537 4.332 63.416 21.292 83.325 47.562 22.445 29.404 40.741 61.665 59.73 93.327 20.969 33.275 54.336 57.47 71.527 93.28 4.793 8.066 3.318 17.606 3.594 26.546-7.742 6.96-15.07 16.592-26.454 16.638-27.191 2.304-54.751 1.567-81.85-1.751-30.74-4.24-50.973-31.386-64.523-56.964-22.214-42.953-58.023-76.228-88.21-113.329-14.656-18.342-32.446-35.763-39.082-58.899 0.046-12.997-3.641-30.786 10.784-37.607z" p-id="4521" fill="#1296db"></path></svg>